<svg id="visual" viewBox="0 0 900 600" width="900" height="600" xmlns="http://www.w3.org/2000/svg" xmlns:xlink="http://www.w3.org/1999/xlink" version="1.1"><g transform="translate(438.80843911290515 283.10262035989257)"><path d="M133.6 -171.4C171.2 -127.7 198.3 -83.7 217.8 -30C237.2 23.7 249 87.1 232.7 152.4C216.5 217.8 172.4 285.1 118.3 289.4C64.1 293.7 0 234.9 -62.7 200C-125.3 165.1 -186.5 154.1 -208.1 119C-229.8 83.9 -211.9 24.9 -192.3 -24.8C-172.6 -74.4 -151.2 -114.6 -118.9 -159.2C-86.6 -203.8 -43.3 -252.9 2.4 -255.7C48 -258.5 96 -215.1 133.6 -171.4" fill="#972a56"></path></g></svg>