<svg id="visual" viewBox="0 0 900 600" width="900" height="600" xmlns="http://www.w3.org/2000/svg" xmlns:xlink="http://www.w3.org/1999/xlink" version="1.1"><g transform="translate(461.2310438713698 382.87444915325295)"><path d="M181.6 -250.9C205.9 -196 175.8 -110.8 158.9 -51.1C141.9 8.7 138.1 43.1 125.5 79.5C112.9 115.9 91.5 154.3 61.1 163.4C30.7 172.5 -8.7 152.3 -54 139.6C-99.3 126.9 -150.6 121.7 -175 94C-199.5 66.2 -197.3 15.9 -203.8 -51.4C-210.3 -118.7 -225.7 -203 -193.2 -256.4C-160.7 -309.8 -80.3 -332.4 -0.9 -331.4C78.6 -330.4 157.3 -305.8 181.6 -250.9" fill="#972a56"></path></g></svg>