<svg id="visual" viewBox="0 0 900 600" width="900" height="600" xmlns="http://www.w3.org/2000/svg" xmlns:xlink="http://www.w3.org/1999/xlink" version="1.1"><g transform="translate(411.3299245717774 306.7893453428443)"><path d="M196.4 -240.8C245 -193.3 268.3 -122.4 263.9 -59.5C259.6 3.4 227.6 58.2 200.4 125.5C173.2 192.8 150.7 272.6 107.4 283.4C64 294.1 -0.3 235.9 -42 188.9C-83.7 141.8 -102.7 106.1 -129.1 69.9C-155.4 33.8 -189 -2.7 -187 -36.3C-185 -69.8 -147.5 -100.4 -110.4 -149.9C-73.3 -199.3 -36.6 -267.7 18.6 -289.9C73.9 -312.1 147.8 -288.2 196.4 -240.8" fill="#972a56"></path></g></svg>