<svg id="visual" viewBox="0 0 900 600" width="900" height="600" xmlns="http://www.w3.org/2000/svg" xmlns:xlink="http://www.w3.org/1999/xlink" version="1.1"><g transform="translate(392.7757955614351 260.18976823172136)"><path d="M147.5 -171.3C199.9 -131.8 257 -93.6 287.3 -34C317.7 25.6 321.2 106.5 289.8 173.4C258.5 240.3 192.2 293 118.4 315.7C44.7 338.3 -36.5 330.8 -93 293.6C-149.5 256.5 -181.2 189.8 -192.4 130.4C-203.6 71.1 -194.1 19.3 -180.1 -26.9C-166.2 -73 -147.7 -113.5 -116.9 -156.7C-86.1 -200 -43.1 -246 2.2 -248.7C47.6 -251.4 95.1 -210.7 147.5 -171.3" fill="#972a56"></path></g></svg>